<svg width="25" height="25" viewBox="0 0 25 25" fill="none" xmlns="http://www.w3.org/2000/svg">
<g filter="url(#filter0_b)">
<path d="M13.4768 0.453819C13.1861 0.163239 12.792 0 12.381 0C11.9699 0 11.5758 0.163239 11.2851 0.453819L0.435103 11.3038C0.152758 11.5962 -0.00347296 11.9877 5.85941e-05 12.3941C0.00359014 12.8005 0.166602 13.1893 0.453985 13.4766C0.741367 13.764 1.13013 13.927 1.53653 13.9306C1.94294 13.9341 2.33447 13.7779 2.6268 13.4955L3.08095 13.0414V23.2497C3.08095 23.6608 3.24426 24.055 3.53494 24.3457C3.82562 24.6364 4.21987 24.7997 4.63095 24.7997H7.73095C8.14204 24.7997 8.53629 24.6364 8.82697 24.3457C9.11765 24.055 9.28095 23.6608 9.28095 23.2497V20.1497C9.28095 19.7386 9.44426 19.3443 9.73494 19.0537C10.0256 18.763 10.4199 18.5997 10.831 18.5997H13.931C14.342 18.5997 14.7363 18.763 15.027 19.0537C15.3177 19.3443 15.481 19.7386 15.481 20.1497V23.2497C15.481 23.6608 15.6443 24.055 15.9349 24.3457C16.2256 24.6364 16.6199 24.7997 17.031 24.7997H20.131C20.542 24.7997 20.9363 24.6364 21.227 24.3457C21.5177 24.055 21.681 23.6608 21.681 23.2497V13.0414L22.1351 13.4955C22.4274 13.7779 22.819 13.9341 23.2254 13.9306C23.6318 13.927 24.0205 13.764 24.3079 13.4766C24.5953 13.1893 24.7583 12.8005 24.7619 12.3941C24.7654 11.9877 24.6091 11.5962 24.3268 11.3038L13.4768 0.453819Z" fill="white"/>
<path d="M23.2167 12.9306C23.0746 12.9318 22.9377 12.8781 22.8345 12.7807L22.3881 12.3343L20.681 10.6272V13.0414V23.2497C20.681 23.3955 20.623 23.5354 20.5199 23.6386L21.227 24.3457L20.5199 23.6386C20.4167 23.7417 20.2768 23.7997 20.131 23.7997H17.031C16.8851 23.7997 16.7452 23.7417 16.642 23.6386L15.9349 24.3457L16.642 23.6386C16.5389 23.5354 16.481 23.3955 16.481 23.2497V20.1497C16.481 19.4734 16.2123 18.8248 15.7341 18.3465C15.2559 17.8683 14.6073 17.5997 13.931 17.5997H10.831C10.1547 17.5997 9.50605 17.8683 9.02783 18.3465C8.54962 18.8248 8.28095 19.4734 8.28095 20.1497V23.2497C8.28095 23.3955 8.22301 23.5354 8.11986 23.6386C8.01672 23.7417 7.87682 23.7997 7.73095 23.7997H4.63095C4.48508 23.7997 4.34519 23.7417 4.24205 23.6386L3.53494 24.3457L4.24204 23.6386C4.1389 23.5354 4.08095 23.3955 4.08095 23.2497V13.0414V10.6272L2.37385 12.3343L1.92739 12.7807C1.82418 12.8781 1.68726 12.9318 1.54522 12.9306C1.40101 12.9293 1.26307 12.8715 1.16109 12.7695C1.05912 12.6676 1.00127 12.5296 1.00002 12.3854C0.998787 12.2434 1.05256 12.1064 1.14992 12.0032L11.9921 1.16103C12.0952 1.05792 12.2351 1 12.381 1C12.5268 1 12.6667 1.05792 12.7698 1.16103L23.612 12.0032C23.7094 12.1065 23.7631 12.2434 23.7619 12.3854C23.7606 12.5296 23.7028 12.6676 23.6008 12.7695L24.3079 13.4766L23.6008 12.7695C23.4988 12.8715 23.3609 12.9293 23.2167 12.9306Z" stroke="#ADADAF" stroke-width="2"/>
</g>
<defs>
<filter id="filter0_b" x="-4" y="-4" width="32.7619" height="32.7997" filterUnits="userSpaceOnUse" color-interpolation-filters="sRGB">
<feFlood flood-opacity="0" result="BackgroundImageFix"/>
<feGaussianBlur in="BackgroundImage" stdDeviation="2"/>
<feComposite in2="SourceAlpha" operator="in" result="effect1_backgroundBlur"/>
<feBlend mode="normal" in="SourceGraphic" in2="effect1_backgroundBlur" result="shape"/>
</filter>
</defs>
</svg>
