<svg width="552" height="552" viewBox="0 0 552 552" fill="none" xmlns="http://www.w3.org/2000/svg">
<g filter="url(#filter0_f)">
<path d="M518.225 242.263C518.209 242.251 518.197 242.235 518.186 242.224L309.738 33.7836C300.853 24.8947 289.04 20.002 276.475 20.002C263.909 20.002 252.097 24.8947 243.208 33.7836L34.8689 242.119C34.7987 242.189 34.7246 242.263 34.6583 242.333C16.4127 260.684 16.4439 290.458 34.748 308.762C43.1106 317.128 54.1515 321.97 65.9604 322.481C66.4438 322.528 66.9273 322.551 67.4146 322.551H75.7187V475.947C75.7187 506.305 100.42 531.003 130.779 531.003H212.331C220.599 531.003 227.301 524.297 227.301 516.032V395.767C227.301 381.916 238.572 370.648 252.424 370.648H300.525C314.377 370.648 325.644 381.916 325.644 395.767V516.032C325.644 524.297 332.346 531.003 340.615 531.003H422.166C452.529 531.003 477.227 506.305 477.227 475.947V322.551H484.93C497.492 322.551 509.305 317.658 518.197 308.766C536.521 290.434 536.529 260.606 518.225 242.263V242.263ZM497.024 287.596C493.792 290.828 489.496 292.61 484.93 292.61H462.256C453.987 292.61 447.285 299.311 447.285 307.58V475.947C447.285 489.794 436.018 501.061 422.166 501.061H355.586V395.767C355.586 365.409 330.888 340.707 300.525 340.707H252.424C222.061 340.707 197.36 365.409 197.36 395.767V501.061H130.779C116.931 501.061 105.66 489.794 105.66 475.947V307.58C105.66 299.311 98.9584 292.61 90.6894 292.61H68.4049C68.1709 292.594 67.9409 292.582 67.7031 292.578C63.2431 292.5 59.0598 290.73 55.9253 287.592C49.2587 280.925 49.2587 270.076 55.9253 263.405C55.9292 263.405 55.9292 263.401 55.9331 263.397L55.9448 263.386L264.385 54.9532C267.613 51.7212 271.905 49.9434 276.475 49.9434C281.04 49.9434 285.332 51.7212 288.564 54.9532L496.958 263.343C496.989 263.374 497.024 263.405 497.055 263.436C503.687 270.115 503.675 280.941 497.024 287.596V287.596Z" fill="#0CA4FA"/>
</g>
<path d="M518.225 242.263C518.209 242.251 518.197 242.235 518.186 242.224L309.738 33.7836C300.853 24.8947 289.04 20.002 276.475 20.002C263.909 20.002 252.097 24.8947 243.208 33.7836L34.8689 242.119C34.7987 242.189 34.7246 242.263 34.6583 242.333C16.4127 260.684 16.4439 290.458 34.748 308.762C43.1106 317.128 54.1515 321.97 65.9604 322.481C66.4438 322.528 66.9273 322.551 67.4146 322.551H75.7187V475.947C75.7187 506.305 100.42 531.003 130.779 531.003H212.331C220.599 531.003 227.301 524.297 227.301 516.032V395.767C227.301 381.916 238.572 370.648 252.424 370.648H300.525C314.377 370.648 325.644 381.916 325.644 395.767V516.032C325.644 524.297 332.346 531.003 340.615 531.003H422.166C452.529 531.003 477.227 506.305 477.227 475.947V322.551H484.93C497.492 322.551 509.305 317.658 518.197 308.766C536.521 290.434 536.529 260.606 518.225 242.263V242.263ZM497.024 287.596C493.792 290.828 489.496 292.61 484.93 292.61H462.256C453.987 292.61 447.285 299.311 447.285 307.58V475.947C447.285 489.794 436.018 501.061 422.166 501.061H355.586V395.767C355.586 365.409 330.888 340.707 300.525 340.707H252.424C222.061 340.707 197.36 365.409 197.36 395.767V501.061H130.779C116.931 501.061 105.66 489.794 105.66 475.947V307.58C105.66 299.311 98.9584 292.61 90.6894 292.61H68.4049C68.1709 292.594 67.9409 292.582 67.7031 292.578C63.2431 292.5 59.0598 290.73 55.9253 287.592C49.2587 280.925 49.2587 270.076 55.9253 263.405C55.9292 263.405 55.9292 263.401 55.9331 263.397L55.9448 263.386L264.385 54.9532C267.613 51.7212 271.905 49.9434 276.475 49.9434C281.04 49.9434 285.332 51.7212 288.564 54.9532L496.958 263.343C496.989 263.374 497.024 263.405 497.055 263.436C503.687 270.115 503.675 280.941 497.024 287.596V287.596Z" fill="#0CA4FA"/>
<defs>
<filter id="filter0_f" x="0.997009" y="0.00195312" width="550.949" height="551.001" filterUnits="userSpaceOnUse" color-interpolation-filters="sRGB">
<feFlood flood-opacity="0" result="BackgroundImageFix"/>
<feBlend mode="normal" in="SourceGraphic" in2="BackgroundImageFix" result="shape"/>
<feGaussianBlur stdDeviation="10" result="effect1_foregroundBlur"/>
</filter>
</defs>
</svg>
