<svg width="205" height="65" viewBox="0 0 205 65" fill="none" xmlns="http://www.w3.org/2000/svg">
<path d="M40.623 15.0459L43.0693 1.67188H48.167L43.6406 23H38.3086L35.4521 10.8418L32.6543 23H27.3369L22.7959 1.67188H27.9082L30.3545 15.0459L33.2842 1.67188H37.6494L40.623 15.0459ZM57.1465 23.293C54.7148 23.293 52.7471 22.5703 51.2432 21.125C49.7393 19.6699 48.9873 17.7803 48.9873 15.4561V15.0459C48.9873 13.4248 49.2852 11.9941 49.8809 10.7539C50.4863 9.51367 51.3652 8.55664 52.5176 7.88281C53.6699 7.19922 55.0371 6.85742 56.6191 6.85742C58.8457 6.85742 60.6035 7.55078 61.8926 8.9375C63.1816 10.3145 63.8262 12.2383 63.8262 14.709V16.6279H54.0117C54.1875 17.5166 54.5732 18.2148 55.1689 18.7227C55.7646 19.2305 56.5361 19.4844 57.4834 19.4844C59.0459 19.4844 60.2666 18.9375 61.1455 17.8438L63.4014 20.5098C62.7861 21.3594 61.9121 22.0381 60.7793 22.5459C59.6562 23.0439 58.4453 23.293 57.1465 23.293ZM56.5898 10.666C55.1445 10.666 54.2852 11.623 54.0117 13.5371H58.9922V13.1562C59.0117 12.3652 58.8115 11.7549 58.3916 11.3252C57.9717 10.8857 57.3711 10.666 56.5898 10.666ZM71.0332 23H66.082V0.5H71.0332V23ZM80.7891 19.4844C81.4824 19.4844 82.0195 19.2988 82.4004 18.9277C82.7812 18.5469 82.9668 18.0195 82.957 17.3457H87.5859C87.5859 19.084 86.9609 20.5098 85.7109 21.623C84.4707 22.7363 82.8691 23.293 80.9062 23.293C78.6016 23.293 76.7852 22.5703 75.457 21.125C74.1289 19.6797 73.4648 17.6777 73.4648 15.1191V14.9141C73.4648 13.3125 73.7578 11.9014 74.3438 10.6807C74.9395 9.4502 75.7939 8.50781 76.9072 7.85352C78.0205 7.18945 79.3389 6.85742 80.8623 6.85742C82.9229 6.85742 84.5586 7.42871 85.7695 8.57129C86.9805 9.71387 87.5859 11.2617 87.5859 13.2148H82.957C82.957 12.3945 82.7568 11.7646 82.3564 11.3252C81.9561 10.8857 81.4189 10.666 80.7451 10.666C79.4658 10.666 78.7188 11.4814 78.5039 13.1123C78.4355 13.6299 78.4014 14.3428 78.4014 15.251C78.4014 16.8428 78.5918 17.9463 78.9727 18.5615C79.3535 19.1768 79.959 19.4844 80.7891 19.4844ZM89.0508 14.9287C89.0508 13.3467 89.3584 11.9404 89.9736 10.71C90.5889 9.46973 91.4727 8.51758 92.625 7.85352C93.7773 7.18945 95.1299 6.85742 96.6826 6.85742C99.0557 6.85742 100.926 7.59473 102.293 9.06934C103.66 10.5342 104.344 12.5312 104.344 15.0605V15.2363C104.344 17.707 103.655 19.6699 102.278 21.125C100.911 22.5703 99.0557 23.293 96.7119 23.293C94.4561 23.293 92.6445 22.6191 91.2773 21.2715C89.9102 19.9141 89.1729 18.0781 89.0654 15.7637L89.0508 14.9287ZM93.9873 15.2363C93.9873 16.7012 94.2168 17.7754 94.6758 18.459C95.1348 19.1426 95.8135 19.4844 96.7119 19.4844C98.4697 19.4844 99.3682 18.1318 99.4072 15.4268V14.9287C99.4072 12.0869 98.499 10.666 96.6826 10.666C95.0322 10.666 94.1387 11.8916 94.002 14.3428L93.9873 15.2363ZM111.185 7.15039L111.346 9.01074C112.469 7.5752 113.978 6.85742 115.872 6.85742C117.874 6.85742 119.227 7.65332 119.93 9.24512C121.004 7.65332 122.557 6.85742 124.588 6.85742C127.801 6.85742 129.451 8.80078 129.539 12.6875V23H124.588V12.9951C124.588 12.1846 124.451 11.5938 124.178 11.2227C123.904 10.8516 123.406 10.666 122.684 10.666C121.707 10.666 120.979 11.1006 120.501 11.9697L120.516 12.1748V23H115.564V13.0244C115.564 12.1943 115.433 11.5938 115.169 11.2227C114.905 10.8516 114.402 10.666 113.66 10.666C112.713 10.666 111.99 11.1006 111.492 11.9697V23H106.556V7.15039H111.185ZM140.027 23.293C137.596 23.293 135.628 22.5703 134.124 21.125C132.62 19.6699 131.868 17.7803 131.868 15.4561V15.0459C131.868 13.4248 132.166 11.9941 132.762 10.7539C133.367 9.51367 134.246 8.55664 135.398 7.88281C136.551 7.19922 137.918 6.85742 139.5 6.85742C141.727 6.85742 143.484 7.55078 144.773 8.9375C146.062 10.3145 146.707 12.2383 146.707 14.709V16.6279H136.893C137.068 17.5166 137.454 18.2148 138.05 18.7227C138.646 19.2305 139.417 19.4844 140.364 19.4844C141.927 19.4844 143.147 18.9375 144.026 17.8438L146.282 20.5098C145.667 21.3594 144.793 22.0381 143.66 22.5459C142.537 23.0439 141.326 23.293 140.027 23.293ZM139.471 10.666C138.025 10.666 137.166 11.623 136.893 13.5371H141.873V13.1562C141.893 12.3652 141.692 11.7549 141.272 11.3252C140.853 10.8857 140.252 10.666 139.471 10.666ZM161.927 3.20996V7.15039H164.534V10.5781H161.927V17.8291C161.927 18.4248 162.034 18.8398 162.249 19.0742C162.464 19.3086 162.889 19.4258 163.523 19.4258C164.012 19.4258 164.422 19.3965 164.754 19.3379V22.8682C163.865 23.1514 162.938 23.293 161.971 23.293C160.271 23.293 159.017 22.8926 158.206 22.0918C157.396 21.291 156.99 20.0752 156.99 18.4443V10.5781H154.969V7.15039H156.99V3.20996H161.927ZM165.428 14.9287C165.428 13.3467 165.735 11.9404 166.351 10.71C166.966 9.46973 167.85 8.51758 169.002 7.85352C170.154 7.18945 171.507 6.85742 173.06 6.85742C175.433 6.85742 177.303 7.59473 178.67 9.06934C180.037 10.5342 180.721 12.5312 180.721 15.0605V15.2363C180.721 17.707 180.032 19.6699 178.655 21.125C177.288 22.5703 175.433 23.293 173.089 23.293C170.833 23.293 169.021 22.6191 167.654 21.2715C166.287 19.9141 165.55 18.0781 165.442 15.7637L165.428 14.9287ZM170.364 15.2363C170.364 16.7012 170.594 17.7754 171.053 18.459C171.512 19.1426 172.19 19.4844 173.089 19.4844C174.847 19.4844 175.745 18.1318 175.784 15.4268V14.9287C175.784 12.0869 174.876 10.666 173.06 10.666C171.409 10.666 170.516 11.8916 170.379 14.3428L170.364 15.2363Z" fill="black"/>
<path d="M8.09131 39.1172L13.6455 56.4292L19.1826 39.1172H27.0781V64H21.0625V58.1895L21.6436 46.2949L15.6279 64H11.6631L5.63037 46.2778L6.21143 58.1895V64H0.212891V39.1172H8.09131ZM41.0576 64C40.8525 63.624 40.6702 63.0715 40.5107 62.3423C39.4512 63.6753 37.9701 64.3418 36.0674 64.3418C34.3242 64.3418 32.8431 63.8177 31.624 62.7695C30.4049 61.71 29.7954 60.3826 29.7954 58.7876C29.7954 56.7824 30.536 55.2671 32.0171 54.2417C33.4982 53.2163 35.6515 52.7036 38.4771 52.7036H40.2544V51.7295C40.2544 50.0319 39.5195 49.1831 38.0498 49.1831C36.6826 49.1831 35.999 49.8553 35.999 51.1997H30.2397C30.2397 49.411 30.9974 47.9583 32.5127 46.8418C34.0394 45.7253 35.9819 45.167 38.3403 45.167C40.6987 45.167 42.5615 45.7424 43.9287 46.8931C45.2959 48.0438 45.9966 49.6217 46.0308 51.627V59.813C46.0535 61.5106 46.3156 62.8094 46.8169 63.7095V64H41.0576ZM37.4517 60.2402C38.1694 60.2402 38.7619 60.0864 39.229 59.7788C39.7075 59.4712 40.0493 59.1237 40.2544 58.7363V55.7798H38.5796C36.5744 55.7798 35.5718 56.6799 35.5718 58.48C35.5718 59.0041 35.7484 59.4313 36.1016 59.7617C36.4548 60.0807 36.9048 60.2402 37.4517 60.2402ZM55.9429 40.9116V45.5088H58.9849V49.5078H55.9429V57.9673C55.9429 58.6623 56.0682 59.1465 56.3188 59.4199C56.5695 59.6934 57.0651 59.8301 57.8057 59.8301C58.3753 59.8301 58.8538 59.7959 59.2412 59.7275V63.8462C58.2044 64.1766 57.1221 64.3418 55.9941 64.3418C54.0117 64.3418 52.5477 63.8747 51.6021 62.9404C50.6564 62.0062 50.1836 60.5877 50.1836 58.6851V49.5078H47.8252V45.5088H50.1836V40.9116H55.9429ZM66.8975 47.4912C68.1279 45.9417 69.7002 45.167 71.6143 45.167C73.6536 45.167 75.1917 45.7708 76.2285 46.9785C77.2653 48.1862 77.7951 49.9692 77.8179 52.3276V64H72.0415V52.4644C72.0415 51.4845 71.8421 50.7668 71.4434 50.311C71.0446 49.8439 70.3667 49.6104 69.4097 49.6104C68.2248 49.6104 67.3874 49.9863 66.8975 50.7383V64H61.1382V37.75H66.8975V47.4912ZM89.9688 64.3418C87.1318 64.3418 84.8361 63.4987 83.0815 61.8125C81.327 60.1149 80.4497 57.9103 80.4497 55.1987V54.7202C80.4497 52.8289 80.7972 51.1598 81.4922 49.7129C82.1986 48.266 83.224 47.1494 84.5684 46.3633C85.9128 45.5658 87.5078 45.167 89.3535 45.167C91.9512 45.167 94.002 45.9759 95.5059 47.5938C97.0098 49.2002 97.7617 51.4447 97.7617 54.3271V56.5659H86.3115C86.5166 57.6027 86.9666 58.4173 87.6616 59.0098C88.3566 59.6022 89.2567 59.8984 90.3618 59.8984C92.1847 59.8984 93.6089 59.2604 94.6343 57.9844L97.2661 61.0947C96.5483 62.0859 95.5286 62.8778 94.207 63.4702C92.8968 64.0513 91.484 64.3418 89.9688 64.3418ZM89.3193 49.6104C87.6331 49.6104 86.6305 50.7269 86.3115 52.96H92.1221V52.5156C92.1449 51.5928 91.9113 50.8807 91.4214 50.3794C90.9315 49.8667 90.2308 49.6104 89.3193 49.6104ZM105.538 45.5088L105.726 47.6792C107.036 46.0044 108.796 45.167 111.006 45.167C113.342 45.167 114.92 46.0955 115.74 47.9526C116.993 46.0955 118.805 45.167 121.175 45.167C124.923 45.167 126.849 47.4342 126.951 51.9688V64H121.175V52.3276C121.175 51.382 121.015 50.6927 120.696 50.2598C120.377 49.8268 119.796 49.6104 118.953 49.6104C117.814 49.6104 116.965 50.1174 116.407 51.1313L116.424 51.3706V64H110.647V52.3618C110.647 51.3934 110.494 50.6927 110.186 50.2598C109.878 49.8268 109.292 49.6104 108.426 49.6104C107.321 49.6104 106.478 50.1174 105.896 51.1313V64H100.137V45.5088H105.538ZM140.657 64C140.452 63.624 140.27 63.0715 140.11 62.3423C139.051 63.6753 137.57 64.3418 135.667 64.3418C133.924 64.3418 132.443 63.8177 131.224 62.7695C130.005 61.71 129.395 60.3826 129.395 58.7876C129.395 56.7824 130.136 55.2671 131.617 54.2417C133.098 53.2163 135.251 52.7036 138.077 52.7036H139.854V51.7295C139.854 50.0319 139.119 49.1831 137.649 49.1831C136.282 49.1831 135.599 49.8553 135.599 51.1997H129.839C129.839 49.411 130.597 47.9583 132.112 46.8418C133.639 45.7253 135.582 45.167 137.94 45.167C140.298 45.167 142.161 45.7424 143.528 46.8931C144.896 48.0438 145.596 49.6217 145.63 51.627V59.813C145.653 61.5106 145.915 62.8094 146.417 63.7095V64H140.657ZM137.051 60.2402C137.769 60.2402 138.361 60.0864 138.829 59.7788C139.307 59.4712 139.649 59.1237 139.854 58.7363V55.7798H138.179C136.174 55.7798 135.171 56.6799 135.171 58.48C135.171 59.0041 135.348 59.4313 135.701 59.7617C136.054 60.0807 136.504 60.2402 137.051 60.2402ZM155.542 40.9116V45.5088H158.584V49.5078H155.542V57.9673C155.542 58.6623 155.668 59.1465 155.918 59.4199C156.169 59.6934 156.665 59.8301 157.405 59.8301C157.975 59.8301 158.453 59.7959 158.841 59.7275V63.8462C157.804 64.1766 156.722 64.3418 155.594 64.3418C153.611 64.3418 152.147 63.8747 151.202 62.9404C150.256 62.0062 149.783 60.5877 149.783 58.6851V49.5078H147.425V45.5088H149.783V40.9116H155.542ZM166.941 64H161.165V45.5088H166.941V64ZM160.823 40.7407C160.823 39.9204 161.119 39.2482 161.712 38.7241C162.304 38.2 163.073 37.938 164.019 37.938C164.965 37.938 165.734 38.2 166.326 38.7241C166.919 39.2482 167.215 39.9204 167.215 40.7407C167.215 41.561 166.919 42.2332 166.326 42.7573C165.734 43.2814 164.965 43.5435 164.019 43.5435C163.073 43.5435 162.304 43.2814 161.712 42.7573C161.119 42.2332 160.823 41.561 160.823 40.7407ZM178.323 59.8984C179.132 59.8984 179.759 59.682 180.203 59.249C180.647 58.8047 180.864 58.1895 180.853 57.4033H186.253C186.253 59.4313 185.524 61.0947 184.065 62.3936C182.618 63.6924 180.75 64.3418 178.46 64.3418C175.771 64.3418 173.652 63.4987 172.103 61.8125C170.553 60.1263 169.778 57.7907 169.778 54.8057V54.5664C169.778 52.6979 170.12 51.0516 170.804 49.6274C171.499 48.1919 172.496 47.0924 173.794 46.3291C175.093 45.5544 176.631 45.167 178.409 45.167C180.813 45.167 182.721 45.8335 184.134 47.1665C185.547 48.4995 186.253 50.3053 186.253 52.584H180.853C180.853 51.627 180.619 50.8921 180.152 50.3794C179.685 49.8667 179.058 49.6104 178.272 49.6104C176.779 49.6104 175.908 50.5617 175.657 52.4644C175.577 53.0682 175.538 53.8999 175.538 54.9595C175.538 56.8166 175.76 58.104 176.204 58.8218C176.648 59.5396 177.355 59.8984 178.323 59.8984ZM199.104 64C198.899 63.624 198.717 63.0715 198.558 62.3423C197.498 63.6753 196.017 64.3418 194.114 64.3418C192.371 64.3418 190.89 63.8177 189.671 62.7695C188.452 61.71 187.842 60.3826 187.842 58.7876C187.842 56.7824 188.583 55.2671 190.064 54.2417C191.545 53.2163 193.698 52.7036 196.524 52.7036H198.301V51.7295C198.301 50.0319 197.566 49.1831 196.097 49.1831C194.729 49.1831 194.046 49.8553 194.046 51.1997H188.287C188.287 49.411 189.044 47.9583 190.56 46.8418C192.086 45.7253 194.029 45.167 196.387 45.167C198.746 45.167 200.608 45.7424 201.976 46.8931C203.343 48.0438 204.043 49.6217 204.078 51.627V59.813C204.1 61.5106 204.362 62.8094 204.864 63.7095V64H199.104ZM195.499 60.2402C196.216 60.2402 196.809 60.0864 197.276 59.7788C197.754 59.4712 198.096 59.1237 198.301 58.7363V55.7798H196.626C194.621 55.7798 193.619 56.6799 193.619 58.48C193.619 59.0041 193.795 59.4313 194.148 59.7617C194.502 60.0807 194.952 60.2402 195.499 60.2402Z" fill="#0CA4FA"/>
</svg>
